:SAMPLES-PER-SECOND 30
:FULLY-SPECIFIED
:DEGREES
263
root  64.9465 36.6314 3.24461 39.5478 9.18995 -0.761346
RightUpLeg  -73.7138 -26.3544 16.207
RightLeg  28.595 -0.158843 -0.327174
RightFoot  5.24801 -0.117432 1.05115
RightToes  0.00048216 0.542163 -0.142577
Spine  68.7017 -3.83814 5.93831
Spine1  11.0261 3.28687 -7.41563
HEad  -34.0471 -6.21945 5.88562
LeftShoulder1  1.86276 -23.1183 1.65794
LeftArm  -80.3754 -57.565 30.0447
LeftForeArm  -2.73388 -4.04252 4.26549
LeftHand  -0.25398 0.0180481 5.50724
RightShoulder  1.12009 11.9996 -1.34009
RightArm  -71.6839 61.9339 -17.7041
RightForeArm  -16.5522 10.3719 2.79885
RightHand  -3.11155 13.2783 -19.6477
LeftUpLeg  -76.9526 26.5264 -33.0928
LeftLeg  36.9213 -0.020373 0.363739
LeftFoot  -7.69355 -0.258741 9.55972
LeftToes  1.06244e-005 4.65856e-005 -8.18505e-006
264
root  64.9046 36.6779 2.99073 38.4416 9.09893 -0.77074
RightUpLeg  -72.6196 -26.4953 15.8989
RightLeg  27.9596 -0.0800294 -0.277851
RightFoot  5.81777 -0.0696944 0.727562
RightToes  0.00048216 0.542163 -0.142577
Spine  68.7125 -3.82901 6.14542
Spine1  10.7972 3.43586 -7.50785
HEad  -33.81 -5.95729 5.99089
LeftShoulder1  1.78646 -23.7498 2.16469
LeftArm  -80.521 -58.7402 30.8223
LeftForeArm  -0.253205 -2.56692 4.13641
LeftHand  -0.25398 0.0180481 5.50724
RightShoulder  1.16771 11.8737 -0.921836
RightArm  -72.5361 63.2433 -19.4409
RightForeArm  -16.7957 7.55669 2.43691
RightHand  -3.5045 13.1895 -22.1082
LeftUpLeg  -76.0689 27 -32.8345
LeftLeg  36.4898 -0.00518226 0.373646
LeftFoot  -7.28128 -0.305302 9.82742
LeftToes  1.06244e-005 4.65856e-005 -8.18505e-006
265
root  64.8698 36.7731 2.70211 37.2499 8.95046 -0.720218
RightUpLeg  -71.2703 -26.7136 15.5922
RightLeg  26.8282 -0.0267079 -0.242803
RightFoot  6.7355 0.0288131 0.111611
RightToes  0.00048216 0.542163 -0.142577
Spine  68.3367 -3.83587 6.05974
Spine1  10.9885 3.32922 -7.5404
HEad  -33.906 -5.44929 5.95885
LeftShoulder1  1.66042 -23.8935 2.72505
LeftArm  -81.3694 -60.1924 32.1056
LeftForeArm  3.08861 -0.760635 4.10804
LeftHand  -0.25398 0.0180481 5.50724
RightShoulder  1.24052 12.4421 -0.714187
RightArm  -73.5538 64.5496 -22.4849
RightForeArm  -16.4901 4.23021 2.27031
RightHand  -3.86597 12.577 -25.0673
LeftUpLeg  -74.8857 27.4921 -32.5965
LeftLeg  35.6236 -0.00328924 0.37149
LeftFoot  -6.61585 -0.373612 9.99482
LeftToes  1.06244e-005 4.65856e-005 -8.18505e-006
266
root  64.8328 36.9091 2.39063 35.8231 8.79076 -0.666002
RightUpLeg  -69.3937 -26.892 15.0057
RightLeg  25.301 -0.0541404 -0.252737
RightFoot  7.79659 0.126514 -0.434519
RightToes  0.00048216 0.542163 -0.142577
Spine  67.9433 -3.81283 5.93656
Spine1  10.9376 3.24526 -7.6552
HEad  -33.68 -5.54779 6.12286
LeftShoulder1  1.54435 -23.9365 3.21532
LeftArm  -81.5035 -62.3119 32.3541
LeftForeArm  7.40482 1.30657 3.88803
LeftHand  -0.25398 0.0180481 5.50724
RightShoulder  1.35257 12.945 -0.205888
RightArm  -74.3943 66.1964 -24.6441
RightForeArm  -13.2787 0.441598 1.89496
RightHand  -3.91195 11.4736 -26.9019
LeftUpLeg  -73.348 28.1246 -32.2646
LeftLeg  34.4634 -0.0351765 0.343899
LeftFoot  -5.75464 -0.460284 10.1181
LeftToes  1.06244e-005 4.65856e-005 -8.18505e-006
267
root  64.7893 37.0629 2.07612 34.0071 8.64003 -0.643038
RightUpLeg  -66.8933 -27.0515 14.0819
RightLeg  23.6297 -0.0275149 -0.234285
RightFoot  8.78395 0.153135 -0.523427
RightToes  0.00048216 0.542163 -0.142577
Spine  67.5425 -3.63876 5.82386
Spine1  10.8185 3.25096 -7.52832
HEad  -33.0119 -6.05147 6.41272
LeftShoulder1  1.60158 -23.9404 2.98065
LeftArm  -79.8529 -64.9741 30.0287
LeftForeArm  11.3121 2.53136 3.31153
LeftHand  -0.25398 0.0180481 5.50724
RightShoulder  1.3798 12.7483 0.101143
RightArm  -73.5083 68.1246 -22.1719
RightForeArm  -7.81423 -2.60308 1.03995
RightHand  -3.79927 10.6404 -27.4479
LeftUpLeg  -71.4061 29.0347 -31.7296
LeftLeg  33.259 -0.128072 0.275118
LeftFoot  -4.89202 -0.543908 10.151
LeftToes  1.06244e-005 4.65856e-005 -8.18505e-006
268
root  64.754 37.217 1.76863 31.8137 8.51182 -0.576263
RightUpLeg  -63.9556 -27.2777 12.8685
RightLeg  22.0475 -0.15568 -0.285954
RightFoot  9.77444 0.177085 -0.586367
RightToes  0.00048216 0.542163 -0.142577
Spine  67.045 -3.34558 5.75925
Spine1  10.701 3.34544 -7.16036
HEad  -32.1379 -6.65001 6.71396
LeftShoulder1  1.91683 -24.4848 1.84056
LeftArm  -74.5883 -67.2362 22.894
LeftForeArm  13.5855 2.01499 2.57645
LeftHand  -0.25398 0.0180481 5.50724
RightShoulder  1.54736 12.7451 1.26778
RightArm  -67.2577 68.7646 -13.8123
RightForeArm  -4.53228 -3.62019 0.663464
RightHand  -3.92349 10.8631 -27.9288
LeftUpLeg  -68.9783 30.0844 -30.9258
LeftLeg  32.0963 -0.16861 0.247396
LeftFoot  -4.16282 -0.612325 10.134
LeftToes  1.06244e-005 4.65856e-005 -8.18505e-006
269
root  64.7497 37.367 1.46558 29.3229 8.42965 -0.405358
RightUpLeg  -60.5971 -27.414 11.1009
RightLeg  20.5964 -0.78041 -0.543738
RightFoot  10.7909 0.234253 -0.81745
RightToes  0.00048216 0.542163 -0.142577
Spine  66.3347 -3.2269 5.59041
Spine1  10.8095 3.19158 -6.84852
HEad  -31.5021 -6.73376 6.77759
LeftShoulder1  2.43837 -24.9378 -0.116162
LeftArm  -65.3883 -68.2663 11.3356
LeftForeArm  14.9301 0.30075 1.77419
LeftHand  -0.25398 0.0180481 5.50724
RightShoulder  2.02975 13.7626 3.75954
RightArm  -56.937 67.2115 -3.03611
RightForeArm  -5.05706 -2.99605 1.30571
RightHand  -4.37384 12.0129 -29.0151
LeftUpLeg  -65.9765 31.0024 -29.7735
LeftLeg  30.921 0.0393739 0.382957
LeftFoot  -3.54806 -0.674648 10.1898
LeftToes  1.06244e-005 4.65856e-005 -8.18505e-006
270
root  64.7798 37.5122 1.16824 26.5954 8.31879 -0.184392
RightUpLeg  -56.6499 -27.0476 8.47045
RightLeg  19.1903 -1.79068 -0.879301
RightFoot  11.6284 0.172758 -0.457484
RightToes  0.00048216 0.542163 -0.142577
Spine  65.0024 -3.09583 5.28935
Spine1  12.0574 2.8909 -6.31486
HEad  -31.5381 -6.52307 6.41903
LeftShoulder1  2.90343 -24.8265 -1.9941
LeftArm  -54.9304 -68.1047 -1.67887
LeftForeArm  17.5409 -1.36917 1.17444
LeftHand  -0.25398 0.0180481 5.50724
RightShoulder  2.56311 14.534 6.60139
RightArm  -47.1345 64.5274 6.65251
RightForeArm  -5.80562 -2.0653 2.16289
RightHand  -4.92955 13.3851 -30.2458
LeftUpLeg  -62.4938 31.7626 -28.2811
LeftLeg  29.7611 0.559334 0.700568
LeftFoot  -2.99605 -0.733778 10.2766
LeftToes  1.06244e-005 4.65856e-005 -8.18505e-006
271
root  64.8282 37.6566 0.889394 23.7496 7.98059 -0.0363925
RightUpLeg  -52.2304 -25.9876 5.263
RightLeg  17.6697 -3.09477 -0.943463
RightFoot  12.4509 0.0175612 0.32543
RightToes  0.00048216 0.542163 -0.142577
Spine  62.7863 -2.27055 4.91279
Spine1  14.9032 2.98007 -4.70616
HEad  -32.1996 -6.69236 5.56987
LeftShoulder1  3.26304 -24.9409 -3.39231
LeftArm  -45.8329 -66.6775 -13.4929
LeftForeArm  22.0234 -2.50392 1.0206
LeftHand  -0.25398 0.0180481 5.50724
RightShoulder  2.70344 13.3646 8.532
RightArm  -39.42 61.5261 15.2694
RightForeArm  -4.4669 -1.44262 2.56922
RightHand  -5.33298 14.3532 -31.0617
LeftUpLeg  -58.8763 32.6765 -26.6806
LeftLeg  28.6657 1.18001 1.05167
LeftFoot  -2.5204 -0.779297 10.2718
LeftToes  1.06244e-005 4.65856e-005 -8.18505e-006
272
root  64.8874 37.8225 0.642897 21.0329 7.30543 -0.0443372
RightUpLeg  -47.698 -24.5723 2.11835
RightLeg  15.6444 -4.87586 -0.315182
RightFoot  13.8762 0.0898337 0.0447054
RightToes  0.00048216 0.542163 -0.142577
Spine  62.3699 -2.40699 3.87769
Spine1  13.6271 2.18106 -5.11857
HEad  -30.3979 -4.97417 5.18183
LeftShoulder1  4.21489 -24.0124 -7.67418
LeftArm  -35.1784 -62.1689 -22.8323
LeftForeArm  26.2397 -3.4256 -0.480402
LeftHand  -0.25398 0.0180481 5.50724
RightShoulder  3.59965 14.7866 12.6814
RightArm  -31.3216 56.0727 23.0419
RightForeArm  -2.96923 -0.814455 3.28696
RightHand  -5.50209 14.636 -31.56
LeftUpLeg  -55.4562 33.9999 -25.2722
LeftLeg  27.4138 1.5837 1.24291
LeftFoot  -2.06996 -0.819875 10.2355
LeftToes  1.06244e-005 4.65856e-005 -8.18505e-006
273
root  64.9579 38.034 0.437361 18.7339 6.38633 -0.199082
RightUpLeg  -42.9021 -22.6044 -1.40936
RightLeg  12.5291 -6.92937 1.52624
RightFoot  15.7932 0.181077 -0.316885
RightToes  0.00048216 0.542163 -0.142577
Spine  60.6869 -1.87686 3.00346
Spine1  14.1612 1.95744 -4.46912
HEad  -29.3771 -4.38334 4.6606
LeftShoulder1  5.06389 -23.8673 -11.2082
LeftArm  -29.6402 -56.7955 -27.5944
LeftForeArm  27.8986 -4.17361 -1.27584
LeftHand  -0.25398 0.0180481 5.50724
RightShoulder  4.13071 14.7369 15.9049
RightArm  -26.009 50.0718 27.2436
RightForeArm  -4.95885 0.403644 4.29168
RightHand  -5.36643 14.1001 -31.6227
LeftUpLeg  -52.3539 35.5868 -24.169
LeftLeg  25.6394 1.69688 1.24423
LeftFoot  -1.44276 -0.880163 10.2346
LeftToes  1.06244e-005 4.65856e-005 -8.18505e-006
274
root  65.0092 38.2796 0.27799 16.9735 5.31278 -0.408757
RightUpLeg  -37.6944 -19.3601 -5.85577
RightLeg  8.18043 -7.36543 4.37061
RightFoot  16.8618 -0.803925 3.66549
RightToes  0.00048216 0.542163 -0.142577
Spine  58.7104 -1.19955 1.89473
Spine1  14.3376 1.72176 -3.50112
HEad  -27.999 -4.24238 4.07094
LeftShoulder1  6.15193 -23.6319 -15.7821
LeftArm  -26.4178 -50.7804 -29.3067
LeftForeArm  27.0842 -4.45313 -1.93481
LeftHand  -0.25398 0.0180481 5.50724
RightShoulder  4.69538 14.8164 19.1396
RightArm  -22.0262 43.381 28.9447
RightForeArm  -8.50119 2.09045 5.48157
RightHand  -5.03111 13.1092 -31.2571
LeftUpLeg  -49.6366 37.2604 -23.3693
LeftLeg  23.3534 1.6199 1.17222
LeftFoot  -0.53109 -0.954507 10.0944
LeftToes  1.06244e-005 4.65856e-005 -8.18505e-006
275
root  64.9782 38.5045 0.16289 15.5776 4.064 -0.534861
RightUpLeg  -33.1781 -16.5457 -9.17751
RightLeg  4.08356 -3.03115 6.28152
RightFoot  15.6894 -3.05149 13.1999
RightToes  0.00048216 0.542163 -0.142577
Spine  56.5525 -0.350282 0.278443
Spine1  14.076 1.50327 -2.4947
HEad  -26.2813 -4.28247 3.70464
LeftShoulder1  7.19797 -22.9534 -20.6748
LeftArm  -24.3928 -44.4046 -29.402
LeftForeArm  24.6244 -4.32939 -2.45436
LeftHand  -0.25398 0.0180481 5.50724
RightShoulder  5.22199 14.8229 22.2022
RightArm  -19.2699 36.5607 29.4645
RightForeArm  -10.0026 3.768 6.28974
RightHand  -4.64246 12.2128 -30.3659
LeftUpLeg  -46.0845 37.4274 -20.6846
LeftLeg  21.1653 3.73975 0.79564
LeftFoot  0.424904 -0.996852 9.62517
LeftToes  1.06244e-005 4.65856e-005 -8.18505e-006
